# xmcd
#
# Track frame offsets:
#	150
#	25123
#	42022
#	57437
#	74036
#	94132
#	119669
#	144063
#	173527
#	198785
#	218240
#	234839
#
# Disc length: 3384 seconds
#
# Revision: 0
# Processed by: cddbd v1.5.2PL0 Copyright (c) Steve Scherf et al.
# Submitted via: audiograbber 1.83.01
#
DISCID=a00d360c
DTITLE=David Bowie - 2004-02-17 A Brisbane Reality Check CD2
DYEAR=2004
DGENRE=Rock
TTITLE0=Life On Mars
TTITLE1=Looking For Water
TTITLE2=Be My Wife
TTITLE3=Days
TTITLE4=White Light White Heat
TTITLE5=Ashes To Ashes
TTITLE6=Im Afraid Of Americans
TTITLE7=Heroes
TTITLE8=Always Crashing In The Same Car
TTITLE9=Five Years
TTITLE10=Suffragette City
TTITLE11=Ziggy Stardust
EXTD=DAT Source
EXTT0=
EXTT1=
EXTT2=
EXTT3=
EXTT4=
EXTT5=
EXTT6=
EXTT7=
EXTT8=
EXTT9=
EXTT10=
EXTT11=
PLAYORDER=
